<svg width="17" height="18" viewBox="0 0 17 18" fill="none" xmlns="http://www.w3.org/2000/svg">
<path d="M4.16634 5.41659H8.33301M4.16634 8.33325H10.833M6.4028 13.3333H11.833C13.2331 13.3333 13.9332 13.3333 14.468 13.0608C14.9384 12.8211 15.3208 12.4386 15.5605 11.9682C15.833 11.4334 15.833 10.7334 15.833 9.33325V4.83325C15.833 3.43312 15.833 2.73306 15.5605 2.19828C15.3208 1.72787 14.9384 1.34542 14.468 1.10574C13.9332 0.833252 13.2331 0.833252 11.833 0.833252H4.83301C3.43288 0.833252 2.73281 0.833252 2.19803 1.10574C1.72763 1.34542 1.34517 1.72787 1.10549 2.19828C0.833008 2.73306 0.833008 3.43312 0.833008 4.83325V15.2795C0.833008 15.7235 0.833008 15.9456 0.924032 16.0596C1.00319 16.1588 1.12323 16.2165 1.25012 16.2163C1.39603 16.2162 1.5694 16.0775 1.91614 15.8001L3.90402 14.2098C4.31011 13.8849 4.51315 13.7225 4.73925 13.607C4.93984 13.5045 5.15336 13.4296 5.37402 13.3843C5.62273 13.3333 5.88275 13.3333 6.4028 13.3333Z" stroke="#A4A7AE" stroke-width="1.66667" stroke-linecap="round" stroke-linejoin="round"/>
</svg>
